<svg xmlns="http://www.w3.org/2000/svg" viewBox="0 0 24 24" width="48" height="48" fill="currentColor">
  <path d="M12 0C5.37 0 0 5.37 0 12c0 5.3 3.438 9.8 8.205 11.385.6.11.82-.26.82-.58 0-.29-.01-1.25-.01-2.27-3.002.65-3.633-1.46-3.633-1.46-.49-1.23-1.2-1.56-1.2-1.56-.98-.67.07-.66.07-.66 1.08.08 1.65 1.1 1.65 1.1.96 1.64 2.52 1.16 3.14.88.1-.69.38-1.16.69-1.43-2.42-.27-4.96-1.21-4.96-5.39 0-1.19.42-2.16 1.1-2.92-.1-.27-.48-1.38.1-2.87 0 0 .91-.29 2.98 1.1.86-.24 1.78-.36 2.7-.36s1.84.12 2.7.36c2.07-1.39 2.98-1.1 2.98-1.1.58 1.49.21 2.6.1 2.87.63.7 1.1 1.62 1.1 2.92 0 4.19-2.54 5.12-4.96 5.39.39.34.74 1.01.74 2.04 0 1.47-.01 2.66-.01 3.03 0 .32.22.69.83.57C20.562 21.8 24 17.3 24 12 24 5.37 18.63 0 12 0z" fill="#fff"/>
</svg>
